<svg width="52" height="52" viewBox="0 0 52 52" fill="none" xmlns="http://www.w3.org/2000/svg">
<path d="M40.8958 9.75C44.0375 9.75 46.5833 12.2958 46.5833 15.4375V36.5625C46.5833 39.7042 44.0375 42.25 40.8958 42.25H11.1042C9.59574 42.25 8.1491 41.6508 7.08249 40.5842C6.01587 39.5176 5.41666 38.0709 5.41666 36.5625V15.4375C5.41666 12.2958 7.96249 9.75 11.1042 9.75H40.8958ZM43.875 19.8803L26.6522 29.3529C26.475 29.4504 26.2782 29.5069 26.0763 29.5183C25.8744 29.5297 25.6725 29.4958 25.4854 29.419L25.3478 29.354L8.12499 19.8792V36.5625C8.12499 37.3526 8.43887 38.1104 8.99757 38.6691C9.55627 39.2278 10.314 39.5417 11.1042 39.5417H40.8958C41.6859 39.5417 42.4437 39.2278 43.0024 38.6691C43.5611 38.1104 43.875 37.3526 43.875 36.5625V19.8803ZM40.8958 12.4583H11.1042C10.314 12.4583 9.55627 12.7722 8.99757 13.3309C8.43887 13.8896 8.12499 14.6474 8.12499 15.4375V16.7906L26 26.6208L43.875 16.7895V15.4375C43.875 14.6474 43.5611 13.8896 43.0024 13.3309C42.4437 12.7722 41.6859 12.4583 40.8958 12.4583Z" fill="white"/>
</svg>
